# xmcd
#
# Track frame offsets:
#	183
#	15383
#	34618
#	52105
#	69205
#	90500
#	104833
#	116970
#	130633
#	145333
#	157255
#	172483
#	189800
#
# Disc length: 2709 seconds
#
# Revision: 0
# Processed by: cddbd v1.4PL0 Copyright (c) Steve Scherf et al.
# Submitted via: dBpowerAMP V4.0
#
DISCID=b70a930d
DTITLE=Sarka and NEWYJOU - Country Show on Broadway
DYEAR=1992
DGENRE=Country
TTITLE0=Down at the Twist and Shout
TTITLE1=Fallin' out of love
TTITLE2=Walk the way the wind blows
TTITLE3=Wall of tears
TTITLE4=Coming home
TTITLE5=Blue Kentucky Girl
TTITLE6=Jambalaya
TTITLE7=Sister's coming home
TTITLE8=One of those things
TTITLE9=I'm movin' on
TTITLE10=Ragtime Annie
TTITLE11=Broadway (Highway robbery)
TTITLE12=Don't tell me what to do
EXTD=Recorded in the "State Opera Prague" Studio in Prague,\nMay 1992\nRegister Nr. 41 0058-2 331 ADD 
EXTT0=
EXTT1=
EXTT2=
EXTT3=
EXTT4=
EXTT5=
EXTT6=
EXTT7=
EXTT8=
EXTT9=
EXTT10=
EXTT11=
EXTT12=
PLAYORDER=
